<svg aria-hidden="true" style="position:absolute;width:0;height:0" xmlns="http://www.w3.org/2000/svg" overflow="hidden"><defs><symbol id="icon-facebook" viewBox="0 0 18 32"><path fill="var(--primary-icon-color,#AFB1B8)" d="M13.33 5.31h2.92V.23C15.75.15 14.01 0 11.99 0 7.8 0 4.9 2.65 4.9 7.52V12H.26v5.69H4.9V32h5.7V17.69h4.46l.7-5.69H10.6V8.08c0-1.64.44-2.77 2.73-2.77z"/></symbol><symbol id="icon-icontelegram" viewBox="0 0 32 32"><path fill="var(--color1, #fff)" d="M32 0L0 18l10.23 3.79L26 7 14 23.19h.01H14V32l5.74-6.7L27 28l5-28z"/></symbol><symbol id="icon-instagramwh" viewBox="0 0 32 32"><path fill="var(--color1, #fff)" d="M31.97 9.4a11.7 11.7 0 00-.74-3.87 7.8 7.8 0 00-1.86-2.84A7.87 7.87 0 0026.54.84C25.52.45 24.36.17 22.66.1 20.95.02 20.4 0 16.06 0s-4.89.02-6.6.1C7.76.16 6.6.43 5.58.83a7.8 7.8 0 00-2.84 1.85A7.87 7.87 0 00.9 5.52C.5 6.54.23 7.7.16 9.4c-.08 1.71-.1 2.26-.1 6.6s.02 4.9.09 6.6c.08 1.7.35 2.87.74 3.88a7.9 7.9 0 001.85 2.84c.8.81 1.77 1.44 2.84 1.84 1.02.4 2.18.67 3.88.75 1.7.07 2.25.09 6.6.09s4.88-.02 6.59-.1a11.7 11.7 0 003.88-.74 8.18 8.18 0 004.68-4.68c.4-1.02.67-2.18.75-3.88.07-1.7.09-2.25.09-6.6s0-4.89-.08-6.6zm-2.88 13.07a8.76 8.76 0 01-.55 2.97 5.31 5.31 0 01-3.04 3.04c-.56.22-1.41.48-2.97.55-1.69.07-2.2.1-6.46.1s-4.79-.02-6.47-.1a8.76 8.76 0 01-2.97-.55 4.93 4.93 0 01-1.84-1.2 4.97 4.97 0 01-1.19-1.83 8.81 8.81 0 01-.55-2.97c-.07-1.69-.1-2.2-.1-6.47s.03-4.78.1-6.46c.07-1.56.33-2.4.55-2.97.26-.7.66-1.32 1.2-1.84a4.97 4.97 0 011.84-1.19A8.81 8.81 0 019.6 3c1.69-.07 2.2-.1 6.46-.1 4.28 0 4.78.03 6.47.1 1.56.07 2.4.33 2.96.55.7.26 1.33.66 1.84 1.2.53.51.94 1.14 1.2 1.83.22.57.48 1.42.55 2.97.07 1.69.1 2.2.1 6.46s-.03 4.77-.1 6.46z"/><path fill="var(--color1, #fff)" d="M16.06 7.78a8.22 8.22 0 100 16.45 8.22 8.22 0 000-16.45zm0 13.55a5.33 5.33 0 110-10.66 5.33 5.33 0 010 10.67zM26.52 7.46a1.92 1.92 0 11-3.83 0 1.92 1.92 0 013.83 0z"/></symbol><symbol id="icon-instagramgr" viewBox="0 0 32 32"><path fill="var(--color2, #afb1b8)" d="M31.97 9.4a11.7 11.7 0 00-.74-3.87 7.8 7.8 0 00-1.86-2.84A7.87 7.87 0 0026.54.84C25.52.45 24.36.17 22.66.1 20.95.02 20.4 0 16.06 0s-4.89.02-6.6.1C7.76.16 6.6.43 5.58.83a7.8 7.8 0 00-2.84 1.85A7.87 7.87 0 00.9 5.52C.5 6.54.23 7.7.16 9.4c-.08 1.71-.1 2.26-.1 6.6s.02 4.9.09 6.6c.08 1.7.35 2.87.74 3.88a7.9 7.9 0 001.85 2.84c.8.81 1.77 1.44 2.84 1.84 1.02.4 2.18.67 3.88.75 1.7.07 2.25.09 6.6.09s4.88-.02 6.59-.1a11.7 11.7 0 003.88-.74 8.18 8.18 0 004.68-4.68c.4-1.02.67-2.18.75-3.88.07-1.7.09-2.25.09-6.6s0-4.89-.08-6.6zm-2.88 13.07a8.76 8.76 0 01-.55 2.97 5.31 5.31 0 01-3.04 3.04c-.56.22-1.41.48-2.97.55-1.69.07-2.2.1-6.46.1s-4.79-.02-6.47-.1a8.76 8.76 0 01-2.97-.55 4.93 4.93 0 01-1.84-1.2 4.97 4.97 0 01-1.19-1.83 8.81 8.81 0 01-.55-2.97c-.07-1.69-.1-2.2-.1-6.47s.03-4.78.1-6.46c.07-1.56.33-2.4.55-2.97.26-.7.66-1.32 1.2-1.84a4.97 4.97 0 011.84-1.19A8.81 8.81 0 019.6 3c1.69-.07 2.2-.1 6.46-.1 4.28 0 4.78.03 6.47.1 1.56.07 2.4.33 2.96.55.7.26 1.33.66 1.84 1.2.53.51.94 1.14 1.2 1.83.22.57.48 1.42.55 2.97.07 1.69.1 2.2.1 6.46s-.03 4.77-.1 6.46z"/><path fill="var(--color2, #afb1b8)" d="M16.06 7.78a8.22 8.22 0 100 16.45 8.22 8.22 0 000-16.45zm0 13.55a5.33 5.33 0 110-10.66 5.33 5.33 0 010 10.67zM26.52 7.46a1.92 1.92 0 11-3.83 0 1.92 1.92 0 013.83 0z"/></symbol><symbol id="icon-linkedin" viewBox="0 0 32 32"><path fill="var(--primary-icon-color,#AFB1B8)" d="M32 32V20.26c0-5.74-1.24-10.16-7.95-10.16-3.23 0-5.39 1.77-6.27 3.45h-.1v-2.92h-6.36V32h6.63V21.42c0-2.79.52-5.48 3.97-5.48 3.4 0 3.45 3.18 3.45 5.66V32H32zM.53 10.64h6.63V32H.53V10.64zM3.84 0C1.72 0 0 1.72 0 3.84s1.72 3.88 3.84 3.88A3.88 3.88 0 007.7 3.84 3.85 3.85 0 003.84 0z"/></symbol><symbol id="icon-logo-1" viewBox="0 0 29 32"><path fill="var(--color2, #afb1b8)" d="M3.84 0l4.68 4.43h13.04v12.35l4.68 4.43V0H3.84z"/><path fill="var(--color2, #afb1b8)" d="M0 4.24v20.6h21.76v-8.19L8.66 4.25H0zm17.61 17.59H3.44V7.97h1V20.9h13.17v.94zM6.27 28.66l.52-1.08h.44l-.77 1.44v.84h-.4v-.84l-.76-1.44h.44l.52 1.08zm2.24.67h-.88l-.18.53h-.41l.86-2.28h.35l.86 2.28H8.7l-.19-.53zM7.74 29h.66l-.33-.94-.33.94zm2.33.23c0-.1.03-.2.09-.28.05-.1.17-.2.34-.32-.1-.11-.15-.2-.19-.28s-.05-.16-.05-.23c0-.18.05-.32.16-.42s.25-.16.44-.16c.16 0 .3.05.4.15a.5.5 0 01.09.62.88.88 0 01-.23.24l-.16.11.44.52a.9.9 0 00.1-.42h.32c0 .28-.06.51-.2.7l.34.39h-.44l-.13-.15c-.16.12-.35.18-.58.18s-.4-.06-.54-.18a.6.6 0 01-.2-.47zm.75.35c.13 0 .25-.05.36-.13l-.5-.59-.04.04c-.13.1-.19.2-.19.32 0 .1.03.2.1.26s.16.1.27.1zm-.2-1.47c0 .09.05.2.16.33l.17-.12.05-.04c.06-.05.1-.13.1-.22a.2.2 0 00-.07-.15.24.24 0 00-.17-.06c-.08 0-.14.02-.18.07s-.07.11-.07.2zm4.13 1a.83.83 0 01-.27.57.92.92 0 01-.62.2.9.9 0 01-.48-.13c-.14-.08-.25-.2-.32-.37s-.12-.34-.12-.55v-.2c0-.22.04-.41.11-.58s.19-.29.33-.37c.14-.1.3-.14.5-.14.25 0 .45.07.6.2s.24.34.27.59h-.4c-.02-.17-.06-.29-.14-.36-.08-.07-.19-.1-.34-.1-.17 0-.3.06-.4.18-.09.13-.13.31-.13.55v.2c0 .25.04.44.13.57s.21.2.38.2c.16 0 .28-.04.35-.11s.13-.19.15-.35h.4zm2.17-.34c0 .22-.04.42-.12.59a.88.88 0 01-.33.39.9.9 0 01-.5.13.93.93 0 01-.49-.13.9.9 0 01-.33-.39 1.36 1.36 0 01-.12-.58v-.12c0-.23.04-.42.12-.6a.89.89 0 01.82-.52c.19 0 .35.05.5.14.14.09.25.21.33.38s.12.36.12.58v.13zm-.4-.12a1 1 0 00-.14-.58.47.47 0 00-.4-.2c-.18 0-.31.07-.4.2a.97.97 0 00-.15.57v.13c0 .25.04.44.14.58s.23.2.4.2c.18 0 .32-.06.4-.2a1 1 0 00.15-.58v-.12z"/></symbol><symbol id="icon-logo-2" viewBox="0 0 25 32"><path fill="var(--color2, #afb1b8)" d="M10.45 1.8h.08c.16 0 .32.02.5.04.72.05 1.45.16 2.17.33V.4a12.97 12.97 0 00-3.16-.4h-.26C8.25 0 6.74.2 5.26.58A18.3 18.3 0 00.47 2.53v17.48a19.48 19.48 0 018.4-2.37h.05l.66-.02v-1.79a21.16 21.16 0 00-6.72 1.18l-.62.2V3.6l.27-.13A17.4 17.4 0 019.78 1.8h.28c.12 0 .25 0 .38.02z"/><path fill="var(--color2, #afb1b8)" d="M14.84 3.65a15.82 15.82 0 01-3.42-.37v17.27c1.12.28 2.27.41 3.42.4 1.53 0 3.04-.2 4.52-.58 1.68-.42 3.3-1.07 4.79-1.94V1.26a19.56 19.56 0 01-9.31 2.4zm6.9.3l.63-.21v13.63l-.27.13a17.06 17.06 0 01-8.47 1.62l-.43-.04V5.06l.5.04a21.1 21.1 0 008.05-1.15zM1.68 25.98A.91.91 0 001 25.7c-.14 0-.27.02-.4.07a.91.91 0 00-.51.52c-.05.12-.07.25-.07.39V29c0 .17.02.33.09.48a.81.81 0 00.55.48c.12.03.23.05.35.05a.97.97 0 00.9-.61.95.95 0 00.07-.37v-.26h-.61v.2c0 .07-.01.15-.04.21a.36.36 0 01-.09.13.37.37 0 01-.12.07.42.42 0 01-.13.02.31.31 0 01-.29-.12.55.55 0 01-.08-.32V26.8c0-.12.02-.24.08-.35.03-.05.07-.1.12-.12s.12-.03.17-.02c.06 0 .11 0 .16.03s.09.06.12.1c.06.09.1.2.1.31v.2h.6v-.24a1.1 1.1 0 00-.28-.73zM5.31 25.95a1.05 1.05 0 00-1.38 0c-.1.1-.18.2-.24.33-.06.14-.09.3-.09.45v2.24c0 .16.03.31.1.46a.9.9 0 00.23.31c.1.09.2.15.32.2a1.08 1.08 0 00.73 0c.12-.05.23-.11.33-.2.1-.09.18-.2.23-.31.06-.15.1-.3.09-.46v-2.24a1.02 1.02 0 00-.32-.78zm-.28 3.02a.4.4 0 01-.13.32.45.45 0 01-.57 0 .4.4 0 01-.12-.32v-2.24a.4.4 0 01.12-.32.45.45 0 01.57 0 .4.4 0 01.13.32v2.24zM10.07 29.97v-4.24h-.59l-.77 2.24-.78-2.24h-.59v4.24h.61v-2.58h.01l.6 1.82h.3l.6-1.82v2.58h.61zM13.51 26.03a.84.84 0 00-.34-.24 1.36 1.36 0 00-.44-.06h-.9v4.24h.6V28.3h.32c.18.01.37-.03.54-.11a.88.88 0 00.33-.33c.07-.11.12-.24.14-.37a3 3 0 00-.02-1.08.9.9 0 00-.23-.4zm-.3 1.29c-.01.08-.03.15-.07.22a.35.35 0 01-.15.15.62.62 0 01-.29.05h-.27V26.3h.3c.1 0 .2.02.28.05.06.04.11.1.14.16.04.08.05.16.06.24V27.32h-.01zM16.37 25.73h-.5l-.92 4.24h.6l.18-.91h.82l.18.9h.6l-.96-4.23zm-.55 2.75l.3-1.54.3 1.54h-.6zM20.28 28.28h-.01l-.92-2.55h-.58v4.24h.6v-2.55h.02l.92 2.55h.57v-4.24h-.6v2.55zM23.97 25.73l-.49 1.69h-.01l-.49-1.69h-.64l.83 2.45v1.79h.6v-1.8l.84-2.44h-.64zM0 31.17h.3v.81h.19v-.81h.29V31H0v.17zM2.45 31l-.38.98h.2l.09-.22h.39l.08.22h.22l-.4-.98h-.2zm-.03.6l.13-.37.13.36h-.26zM4.87 31.62h.22v.13a.38.38 0 01-.23.08c-.04 0-.08 0-.12-.02l-.09-.07a.41.41 0 01-.07-.26c0-.22.1-.33.28-.33.05 0 .1 0 .14.04s.07.07.08.12l.2-.04c-.05-.2-.18-.29-.42-.29a.5.5 0 00-.34.13c-.05.05-.1.1-.12.17s-.03.14-.03.2c0 .14.04.27.13.38a.48.48 0 00.38.14c.15 0 .3-.05.41-.16v-.39h-.42v.17zM7.34 31h-.2v.98h.69v-.17h-.5V31zM9.43 31h-.2v.98h.2V31zM11.47 31.66l-.4-.66h-.2v.98h.19v-.64l.4.64h.2V31h-.2v.66zM13.31 31.55h.5v-.17h-.5v-.21h.53V31h-.72v.98h.74v-.16h-.54v-.27zM17.8 31.39h-.4v-.4h-.2v1h.2v-.44h.4v.43h.19V31h-.2v.39zM19.65 31.55h.5v-.17h-.5v-.21h.53V31h-.73v.98h.75v-.16h-.55v-.27zM22.17 31.55c.17-.03.26-.12.26-.28a.24.24 0 00-.1-.21.55.55 0 00-.29-.06h-.42v.98h.2v-.41h.04c.04 0 .09 0 .12.02s.06.04.07.07l.22.32h.24l-.12-.2a.69.69 0 00-.22-.23zm-.2-.14h-.15v-.24h.16c.07 0 .13 0 .2.02l.03.04.01.06-.01.06a.11.11 0 01-.04.04.55.55 0 01-.2.02zM24.07 31.55h.49v-.17h-.5v-.21h.54V31h-.73v.98h.74v-.16h-.54v-.27z"/></symbol><symbol id="icon-logo-3" viewBox="0 0 31 32"><path fill="var(--color2, #afb1b8)" d="M4.72 31.1a.09.09 0 01.06.03l.15.16c-.11.13-.26.23-.43.3-.19.08-.4.12-.6.11-.2 0-.4-.03-.58-.1a1.25 1.25 0 01-.71-.73 1.62 1.62 0 010-1.15 1.33 1.33 0 01.76-.73 1.65 1.65 0 011.14-.01c.15.06.29.15.41.26l-.13.17-.03.03a.08.08 0 01-.05.01c-.02 0-.04 0-.06-.02l-.07-.04-.1-.06a.98.98 0 00-.3-.1 1.24 1.24 0 00-.65.06.96.96 0 00-.33.21 1 1 0 00-.22.34c-.05.15-.08.3-.07.46 0 .15.02.3.07.46.05.12.12.24.22.34.08.09.2.16.31.2.13.06.26.08.4.08l.23-.01a.87.87 0 00.5-.24.12.12 0 01.08-.03zM9.14 30.3c0 .19-.03.38-.1.56-.06.17-.16.32-.29.44s-.28.23-.45.3c-.37.13-.79.13-1.16 0a1.28 1.28 0 01-.74-.73 1.61 1.61 0 010-1.15c.06-.16.16-.32.29-.45.12-.12.28-.21.45-.27.37-.14.79-.14 1.16 0a1.3 1.3 0 01.74.73c.07.18.1.37.1.57zm-.4 0c0-.16-.02-.31-.07-.46a.9.9 0 00-.53-.56c-.27-.1-.57-.1-.85 0a.9.9 0 00-.53.56c-.1.3-.1.61 0 .91a.89.89 0 00.53.55c.28.1.58.1.85 0a.88.88 0 00.53-.55c.05-.15.08-.3.07-.45zM12.16 30.77l.04.1a3.46 3.46 0 01.1-.2l.97-1.69c.02-.03.04-.05.06-.05l.08-.01h.29v2.75h-.35v-2.02-.09-.1l-.98 1.72c-.01.03-.03.05-.06.07s-.05.02-.08.02h-.06a.15.15 0 01-.14-.09l-1.01-1.72v2.21h-.33v-2.75h.37l.05.06 1 1.7a.6.6 0 01.05.1zM15.84 30.64v1.03h-.38v-2.75h.85c.16 0 .32.02.48.06.12.03.24.09.34.17a.7.7 0 01.19.27.9.9 0 01.06.35c0 .12-.02.24-.07.35-.05.1-.12.2-.2.28a.94.94 0 01-.35.18c-.14.04-.3.07-.46.06h-.46zm0-.3h.46a1 1 0 00.3-.04.62.62 0 00.21-.12c.06-.05.1-.11.13-.18a.58.58 0 00.05-.23.52.52 0 00-.17-.41.77.77 0 00-.52-.15h-.46v1.13zM20.99 31.67h-.3c-.04 0-.07 0-.09-.02a.16.16 0 01-.05-.07l-.26-.66H19l-.28.66a.15.15 0 01-.04.07.13.13 0 01-.09.02h-.3l1.15-2.75h.4l1.16 2.75zm-1.9-1.02h1.08l-.45-1.12a1.83 1.83 0 01-.09-.26l-.04.14-.05.12-.45 1.12zM22.64 28.93l.06.05 1.67 2.08v-.1-2.04h.35v2.75h-.2l-.07-.01a.2.2 0 01-.06-.05l-1.68-2.08v2.15h-.34v-2.76h.2l.07.01zM27.54 30.58v1.1h-.39v-1.1l-1.05-1.66h.34c.03 0 .06 0 .08.02l.05.06.66 1.07a1.68 1.68 0 01.12.25l.05-.12.07-.13.65-1.07a.27.27 0 01.05-.06.12.12 0 01.08-.03h.35l-1.06 1.67zM11.97 24.3l.5.04c2.59-1.1 4.77-2.9 6.29-5.18s2.29-4.93 2.23-7.62l-2.85-2.71c.58 2.87.31 5.83-.78 8.56s-2.95 5.12-5.39 6.9z"/><path fill="var(--color2, #afb1b8)" d="M10.96 24.17l.07.01c2.6-1.77 4.59-4.24 5.7-7.1s1.28-5.97.52-8.92l-4.06-3.87a17.91 17.91 0 01-2.24 19.88zM24.7 14.72a14 14 0 01-4.77 7.62c-.7.58-1.46 1.1-2.26 1.55 1.96-.55 3.76-1.52 5.27-2.84s2.67-2.94 3.4-4.76l-1.64-1.56z"/><path fill="var(--color2, #afb1b8)" d="M24.06 14.29l-2.34-2.23c-.05 2.54-.8 5.03-2.2 7.2s-3.37 3.94-5.73 5.13h.01a14 14 0 001.58-.09c2.2-.85 4.14-2.21 5.66-3.96s2.55-3.83 3.02-6.05zM11.3 2.66L8.5 0C6 .92 3.86 2.54 2.34 4.64S.01 9.23 0 11.78c0 2.81 1 5.55 2.83 7.77s4.37 3.79 7.24 4.47A17.44 17.44 0 0011.3 2.66zM30.51 13.88c0-3.35-1.4-6.55-3.89-8.91a13.66 13.66 0 00-14.1-2.87l17.1 16.3c.6-1.45.9-2.98.9-4.52z"/></symbol><symbol id="icon-logo-4" viewBox="0 0 60 32"><path fill="var(--color2, #afb1b8)" d="M9.23 9.55a3.01 3.01 0 00-3.05 2.97 3.01 3.01 0 003.05 2.97 3.01 3.01 0 003.05-2.97 3.01 3.01 0 00-3.05-2.97zM31.73 8.6c0-2.28-.94-4.46-2.59-6.07S25.24 0 22.91 0c-2.34 0-4.58.91-6.24 2.52s-2.58 3.8-2.59 6.08v12.57S31.73 19.25 31.73 8.6zM0 25.29c0 1.59.65 3.1 1.8 4.23a6.2 6.2 0 008.68 0 5.92 5.92 0 001.8-4.23v-8.74S0 17.88 0 25.29zm6.14 1.57c-.32 0-.63-.1-.9-.27s-.46-.41-.59-.7-.15-.6-.09-.9c.07-.31.22-.59.44-.8s.51-.38.83-.44a1.64 1.64 0 011.65.67 1.54 1.54 0 01-.2 1.98 1.61 1.61 0 01-1.14.46zM18.67 25.88h-1.26v1.3h-.65v-3.17h2.07v.53h-1.41v.82h1.25v.53zm3.14-.21c0 .3-.05.58-.16.82s-.27.42-.48.54c-.2.13-.44.2-.7.2-.26 0-.5-.07-.7-.2s-.37-.3-.49-.54c-.1-.23-.17-.5-.17-.8v-.16c0-.32.06-.6.17-.83a1.26 1.26 0 011.18-.74c.27 0 .5.07.7.2.21.12.37.3.48.54.12.24.17.51.17.82v.15zm-.66-.15c0-.33-.06-.58-.18-.76s-.29-.26-.5-.26a.58.58 0 00-.51.26c-.12.17-.18.42-.19.75v.16c0 .32.06.57.18.75s.3.27.52.27c.22 0 .39-.09.5-.26.12-.17.18-.42.18-.75v-.16zm2.79.83a.33.33 0 00-.14-.29 1.64 1.64 0 00-.47-.2c-.22-.08-.4-.15-.53-.22-.37-.2-.55-.46-.55-.79 0-.17.05-.32.15-.46.1-.13.23-.24.41-.31.19-.08.39-.12.61-.12.23 0 .43.05.61.13s.31.2.41.35c.1.15.15.32.15.5h-.65a.43.43 0 00-.14-.33.56.56 0 00-.39-.12.6.6 0 00-.37.1.32.32 0 00-.13.26c0 .1.05.2.15.26.1.07.26.14.46.2.37.11.64.25.81.41s.26.38.26.62c0 .28-.1.5-.31.65-.21.16-.49.23-.84.23-.25 0-.47-.04-.67-.13-.2-.09-.35-.21-.46-.37a.94.94 0 01-.16-.54h.66c0 .35.21.53.63.53.15 0 .28-.03.36-.1a.31.31 0 00.13-.26zm3.49-1.81h-.98v2.64h-.65v-2.64h-.96V24h2.59v.53zm2.28 1.27h-1.25v.85h1.47v.52H27.8v-3.17h2.13v.53h-1.47v.75h1.25v.52zm1.78.2h-.52v1.17h-.66v-3.17h1.18c.38 0 .67.08.87.25s.3.4.3.7c0 .22-.04.4-.14.55a.95.95 0 01-.42.34l.69 1.3v.03h-.7l-.6-1.16zm-.52-.52h.53c.16 0 .29-.04.38-.12.09-.09.13-.2.13-.35a.48.48 0 00-.13-.35c-.08-.1-.21-.13-.39-.13h-.52v.95zm3.96.57v1.12h-.65v-3.17h1.23c.24 0 .45.04.63.13.18.08.32.21.42.37.1.16.15.34.15.55 0 .3-.1.56-.32.74-.22.17-.51.26-.89.26h-.57zm0-.53h.58c.18 0 .31-.04.4-.12.1-.08.14-.2.14-.35 0-.15-.05-.28-.14-.37s-.22-.15-.38-.15h-.6v1zm4.14.27H37.8v.85h1.48v.53h-2.13v-3.17h2.12v.53h-1.47v.75h1.26v.52zm3.03-1.26h-.97v2.64h-.65v-2.64h-.96V24h2.58v.53zm2.29 1.27h-1.26v.85h1.48v.52h-2.13v-3.17h2.12v.53h-1.47v.75h1.26v.52zm1.78.2h-.53v1.17H45v-3.17h1.18c.38 0 .66.08.87.25s.3.4.3.7c0 .22-.04.4-.14.55a.95.95 0 01-.42.34l.68 1.3v.03h-.7l-.6-1.16zm-.52-.52h.52c.17 0 .3-.04.39-.12.08-.09.13-.2.13-.35a.48.48 0 00-.13-.35c-.08-.1-.21-.13-.39-.13h-.52v.95zm3.84.86a.33.33 0 00-.13-.29 1.64 1.64 0 00-.47-.2c-.23-.08-.4-.15-.54-.22-.36-.2-.54-.46-.54-.79 0-.17.05-.32.14-.46.1-.13.24-.24.42-.31.18-.08.38-.12.6-.12.24 0 .44.05.61.13.18.08.32.2.42.35.1.15.14.32.14.5h-.65a.43.43 0 00-.14-.33.56.56 0 00-.38-.12.6.6 0 00-.38.1.32.32 0 00-.13.26c0 .1.05.2.16.26.1.07.25.14.46.2.37.11.64.25.8.41s.26.38.26.62c0 .28-.1.5-.3.65-.22.16-.5.23-.85.23-.24 0-.46-.04-.66-.13s-.36-.21-.46-.37a.94.94 0 01-.16-.54h.66c0 .35.2.53.62.53.16 0 .28-.03.37-.1a.31.31 0 00.13-.26z"/></symbol><symbol id="icon-logo-6" viewBox="0 0 62 32"><path fill="var(--color2, #afb1b8)" d="M31.12 14.85c-.29-.42-.43-.92-.4-1.43v-2.07c0-.64.14-1.12.4-1.45s.72-.5 1.36-.5c.6 0 1.03.14 1.28.43.28.36.41.8.38 1.24v.48h-1.08v-.49c0-.16 0-.32-.03-.48a.48.48 0 00-.15-.29.59.59 0 00-.4-.11.62.62 0 00-.4.12c-.1.08-.16.2-.18.31a2.6 2.6 0 00-.04.52v2.51c-.02.25.03.5.14.71.05.08.12.14.21.17s.18.05.28.04c.14.01.27-.03.38-.11a.52.52 0 00.16-.3c.03-.17.04-.34.03-.51v-.51h1.08v.46c.03.46-.1.92-.37 1.3-.25.31-.67.47-1.3.47s-1.08-.17-1.34-.5zM35.6 14.88c-.27-.33-.4-.8-.4-1.42v-2.18c0-.62.13-1.09.4-1.4s.73-.48 1.37-.47c.63 0 1.09.15 1.36.47.27.32.4.78.4 1.4v2.18c0 .62-.13 1.09-.4 1.41s-.73.5-1.36.5-1.09-.17-1.36-.5zm1.87-.53c.1-.2.15-.42.13-.64v-2.68c.01-.21-.03-.43-.13-.63-.05-.08-.13-.14-.22-.17s-.18-.05-.28-.04c-.1-.01-.2 0-.28.04s-.17.1-.22.17c-.1.2-.15.42-.13.63v2.69c-.02.22.03.44.13.64.06.07.14.13.22.17s.18.05.28.05a.68.68 0 00.5-.21v-.02zM40.03 9.47h1.16l.88 4.02.89-4.02h1.13l.11 5.81h-.83l-.1-4.04-.85 4.04h-.67l-.9-4.05-.08 4.05h-.84l.1-5.81zM45.5 9.47h1.8c1.05 0 1.57.55 1.57 1.65 0 1.05-.55 1.58-1.65 1.58h-.61v2.58h-1.12l.01-5.81zm1.54 2.48a.8.8 0 00.62-.18c.12-.2.18-.43.16-.66a2 2 0 00-.06-.53c-.01-.05-.04-.1-.08-.16s-.08-.08-.14-.11c-.15-.07-.32-.1-.5-.1h-.43v1.74h.43zM50.47 9.47h1.2l1.23 5.81h-1.04l-.24-1.34h-1.07l-.25 1.34h-1.06l1.23-5.81zm1.03 3.8l-.42-2.44-.42 2.44h.84zM53.9 9.47h.77l1.5 3.31V9.47h.92v5.81h-.74l-1.5-3.46v3.46h-.96V9.47zM59.26 13.06l-1.24-3.58h1.04l.76 2.3.71-2.3h1.02l-1.22 3.58v2.22h-1.07v-2.22zM32.84 17.82v.3h-.9v2.37h-.39v-2.36h-.91v-.3h2.2zM35.7 20.49h-.3c-.03 0-.06 0-.08-.03a.14.14 0 01-.05-.06l-.26-.63h-1.26l-.27.63c0 .03-.02.05-.04.07a.12.12 0 01-.08.03h-.3l1.12-2.67h.39l1.13 2.66zm-1.85-1h1.05l-.44-1.08a2.23 2.23 0 01-.09-.25l-.04.14-.04.11-.44 1.09zM37.62 20.23h.2l.19-.04c.05 0 .1-.03.16-.05l.14-.06v-.6h-.47l-.03-.02-.02-.02v-.23h.86v1.02a1.69 1.69 0 01-1.07.29c-.2 0-.39-.04-.57-.1a1.3 1.3 0 01-.84-1.25c0-.2.04-.39.1-.56a1.33 1.33 0 01.73-.7c.2-.07.4-.1.6-.1.11 0 .22 0 .32.02a1.4 1.4 0 01.68.32l-.1.16a.1.1 0 01-.1.05c-.02 0-.04 0-.06-.02a1.54 1.54 0 01-.11-.06 1.3 1.3 0 00-1.07-.08.93.93 0 00-.33.2c-.09.1-.16.22-.2.34-.1.29-.1.6 0 .89a.96.96 0 00.55.54c.14.05.29.07.44.06zM41.17 20.18h1.22v.3h-1.6v-2.66h.39v2.36zM43.66 20.49h-.38v-2.67h.38v2.67zM45.07 17.83l.06.05 1.63 2.01v-.1-1.98h.33v2.68h-.19c-.03 0-.05 0-.08-.02a.2.2 0 01-.06-.05l-1.63-2v2.07h-.32v-2.67h.2l.06.01zM49.9 17.82v.3h-1.35v.87h1.1v.29h-1.1v.9h1.35v.3h-1.74v-2.66h1.74zM9.95 1.36L26.88 5.9v15.95L9.95 17.3V1.36zM8.86 0v18.08l19.1 5.14V5.14L8.86 0z"/><path fill="var(--color2, #afb1b8)" d="M19.1 31.61L0 26.47V8.4l19.1 5.14V31.6zM9.18 1.16l16.7 4.49-7.1 6.73-16.7-4.5 7.1-6.72zM8.86 0L0 8.4l19.1 5.13 8.86-8.4L8.86 0zM20.18 30.6l7.78-7.38-7.79-2.1v9.47z"/></symbol><symbol id="icon-twitter" viewBox="0 0 32 32"><path fill="var(--primary-icon-color,#AFB1B8)" d="M32 6.08c-1.19.52-2.46.87-3.78 1.03a6.52 6.52 0 002.89-3.62 13.11 13.11 0 01-4.16 1.59 6.57 6.57 0 00-11.2 5.98A18.57 18.57 0 012.23 4.2a6.57 6.57 0 002.02 8.77 6.48 6.48 0 01-2.97-.81v.07a6.59 6.59 0 005.26 6.44 6.55 6.55 0 01-2.97.1 6.62 6.62 0 006.13 4.58 13.18 13.18 0 01-9.7 2.7A18.47 18.47 0 0010.06 29c12.08 0 18.68-10 18.68-18.67 0-.29-.01-.57-.03-.85 1.3-.92 2.4-2.07 3.29-3.4z"/></symbol><symbol id="icon-logo-5" viewBox="0 0 40 32"><path fill="var(--color2, #afb1b8)" d="M3.06 26.74c.15.2.24.44.23.69a1.1 1.1 0 01-.36.87c-.3.23-.69.34-1.06.32H0v-4.37h1.83c.36-.02.72.08 1 .3a1 1 0 01.36.81c.01.24-.06.48-.2.67a1 1 0 01-.56.34c.24.04.47.18.63.37zm-2.2-.66h.79c.18.02.35-.03.5-.14a.51.51 0 00.16-.43.53.53 0 00-.16-.42.75.75 0 00-.51-.15H.87v1.14zm1.36 1.68a.54.54 0 00.19-.45.56.56 0 00-.2-.44.8.8 0 00-.52-.16H.87v1.2h.83c.19 0 .37-.05.52-.15zM6.79 28.62l-1.02-1.7H5.4v1.7h-.87v-4.36h1.65c.42-.03.83.1 1.16.37a1.4 1.4 0 01.12 1.8c-.2.24-.48.4-.8.44l1.1 1.75h-.96zm-1.4-2.3h.72c.5 0 .74-.22.74-.66a.64.64 0 00-.18-.5.77.77 0 00-.56-.17h-.73l.01 1.33zM11.57 27.74H9.83l-.31.88H8.6l1.6-4.32h1l1.59 4.32h-.92l-.3-.88zm-.23-.66l-.64-1.84-.64 1.84h1.27zM17.55 28.62h-.87l-1.94-2.97v2.97h-.87v-4.36h.87l1.94 2.98v-2.98h.87v4.36zM22.5 27.57c-.18.33-.45.6-.78.77-.38.2-.8.29-1.22.28h-1.55v-4.36h1.55c.42-.02.84.08 1.22.26.33.17.6.44.78.76a2.54 2.54 0 010 2.3zm-1-.1a1.6 1.6 0 000-2.08 1.5 1.5 0 00-1.08-.37h-.6v2.82h.6c.4.02.79-.1 1.09-.37zM12.11 0s11.2 4.25 10.96 10.39v10.4s-11.19-4.26-10.96-10.4V0zM33.05 18.35a15.3 15.3 0 017.12-2.63v-3.26a14.62 14.62 0 00-7.12 5.89z"/><path fill="var(--color2, #afb1b8)" d="M31.78 19.33c1.73-3.5 4.74-6.2 8.4-7.55V2.41S24.21 8.45 24.55 17.2V32s.7-.27 1.83-.78c0-.47 0-.95.05-1.43a15.39 15.39 0 015.34-10.46z"/><path fill="var(--color2, #afb1b8)" d="M30.27 24.82c.08-1.02.27-2.04.55-3.02a14.32 14.32 0 00-3.37 8.93c.9-.43 1.96-.98 3.06-1.62-.28-1.4-.36-2.85-.24-4.28zM30.9 24.88c-.1 1.3-.04 2.6.2 3.88 4.35-2.62 9.25-6.67 9.06-11.56v-.42a14.28 14.28 0 00-8.29 3.89 14.65 14.65 0 00-.97 4.2z"/></symbol></defs></svg>